<?xml version="1.0" encoding="UTF-8" standalone="no"?>
<!-- Created with Inkscape (http://www.inkscape.org/) -->
<svg
   xmlns:svg="http://www.w3.org/2000/svg"
   xmlns="http://www.w3.org/2000/svg"
   xmlns:xlink="http://www.w3.org/1999/xlink"
   version="1.0"
   width="48"
   height="48"
   id="svg2">
  <defs
     id="defs4">
    <linearGradient
       id="linearGradient4900">
      <stop
         style="stop-color:#babdb6;stop-opacity:1"
         offset="0"
         id="stop4902" />
      <stop
         style="stop-color:#babdb6;stop-opacity:0"
         offset="1"
         id="stop4904" />
    </linearGradient>
    <radialGradient
       cx="19.825491"
       cy="18.369499"
       r="18.990868"
       fx="19.825491"
       fy="18.369499"
       id="radialGradient2827"
       xlink:href="#linearGradient2821"
       gradientUnits="userSpaceOnUse" />
    <linearGradient
       x1="27.471943"
       y1="23.875917"
       x2="20.203051"
       y2="35.373093"
       id="linearGradient2816"
       xlink:href="#linearGradient2810"
       gradientUnits="userSpaceOnUse"
       gradientTransform="matrix(0.950544,0,0,0.950544,1.216651,2.191398)" />
    <linearGradient
       id="linearGradient2810">
      <stop
         style="stop-color:#ffffff;stop-opacity:1"
         offset="0"
         id="stop2812" />
      <stop
         style="stop-color:#ffffff;stop-opacity:0"
         offset="1"
         id="stop2814" />
    </linearGradient>
    <linearGradient
       id="linearGradient2821">
      <stop
         style="stop-color:#ffffff;stop-opacity:1"
         offset="0"
         id="stop2823" />
      <stop
         style="stop-color:#d3d7cf;stop-opacity:1"
         offset="1"
         id="stop2825" />
    </linearGradient>
    <radialGradient
       cx="10.852722"
       cy="24.571123"
       r="10.971423"
       fx="10.852722"
       fy="24.571123"
       id="radialGradient4057"
       xlink:href="#linearGradient6011"
       gradientUnits="userSpaceOnUse"
       gradientTransform="matrix(1.306412,2.009915,-1.817805,1.181546,42.42075,-28.89249)" />
    <linearGradient
       x1="155.73915"
       y1="240.15204"
       x2="155.04268"
       y2="268.60489"
       id="linearGradient4055"
       xlink:href="#linearGradient4049"
       gradientUnits="userSpaceOnUse" />
    <linearGradient
       x1="15.038443"
       y1="21.709896"
       x2="15.038443"
       y2="47.303162"
       id="linearGradient4039"
       xlink:href="#linearGradient4033"
       gradientUnits="userSpaceOnUse" />
    <radialGradient
       cx="33.549332"
       cy="6.2057247"
       r="9.5"
       fx="33.549332"
       fy="6.2057247"
       id="radialGradient4005"
       xlink:href="#linearGradient3999"
       gradientUnits="userSpaceOnUse"
       gradientTransform="matrix(1.617516,0.251029,-0.193469,1.246869,-19.2478,-9.159605)" />
    <radialGradient
       cx="169.35948"
       cy="252.11237"
       r="10.081617"
       fx="169.35948"
       fy="252.11237"
       id="radialGradient5999"
       xlink:href="#linearGradient5993"
       gradientUnits="userSpaceOnUse"
       gradientTransform="matrix(-1.852038,1.087271,-0.850551,-1.448754,685.9354,426.9624)" />
    <linearGradient
       id="linearGradient5993">
      <stop
         style="stop-color:#fce94f;stop-opacity:1"
         offset="0"
         id="stop5995" />
      <stop
         style="stop-color:#f57900;stop-opacity:1"
         offset="1"
         id="stop5997" />
    </linearGradient>
    <linearGradient
       id="linearGradient6011">
      <stop
         style="stop-color:#fce94f;stop-opacity:1"
         offset="0"
         id="stop6013" />
      <stop
         style="stop-color:#f57900;stop-opacity:1"
         offset="1"
         id="stop6015" />
    </linearGradient>
    <linearGradient
       id="linearGradient3975">
      <stop
         style="stop-color:#babdb6;stop-opacity:0.6978417"
         offset="0"
         id="stop3977" />
      <stop
         style="stop-color:#babdb6;stop-opacity:0"
         offset="1"
         id="stop3979" />
    </linearGradient>
    <linearGradient
       id="linearGradient3999">
      <stop
         style="stop-color:#ffffff;stop-opacity:1"
         offset="0"
         id="stop4001" />
      <stop
         style="stop-color:#d8dcd5;stop-opacity:1"
         offset="1"
         id="stop4003" />
    </linearGradient>
    <linearGradient
       id="linearGradient4033">
      <stop
         style="stop-color:#faedd1;stop-opacity:1"
         offset="0"
         id="stop4035" />
      <stop
         style="stop-color:#faedd1;stop-opacity:0"
         offset="1"
         id="stop4037" />
    </linearGradient>
    <linearGradient
       id="linearGradient4049">
      <stop
         style="stop-color:#faedd1;stop-opacity:1"
         offset="0"
         id="stop4051" />
      <stop
         style="stop-color:#faedd1;stop-opacity:0"
         offset="1"
         id="stop4053" />
    </linearGradient>
    <linearGradient
       id="linearGradient2933">
      <stop
         style="stop-color:#9cbcde;stop-opacity:1"
         offset="0"
         id="stop2935" />
      <stop
         style="stop-color:#204a87;stop-opacity:1"
         offset="1"
         id="stop2937" />
    </linearGradient>
    <linearGradient
       id="linearGradient2431">
      <stop
         style="stop-color:#ffffff;stop-opacity:1"
         offset="0"
         id="stop2433" />
      <stop
         style="stop-color:#b8b8b8;stop-opacity:1"
         offset="1"
         id="stop2435" />
    </linearGradient>
    <linearGradient
       id="linearGradient2778">
      <stop
         style="stop-color:#ff0202;stop-opacity:1"
         offset="0"
         id="stop2780" />
      <stop
         style="stop-color:#b20000;stop-opacity:1"
         offset="1"
         id="stop2782" />
    </linearGradient>
    <linearGradient
       id="linearGradient2788">
      <stop
         style="stop-color:#ffffff;stop-opacity:1"
         offset="0"
         id="stop2790" />
      <stop
         style="stop-color:#ffffff;stop-opacity:0"
         offset="1"
         id="stop2792" />
    </linearGradient>
    <linearGradient
       id="linearGradient2796">
      <stop
         style="stop-color:#ffffff;stop-opacity:1"
         offset="0"
         id="stop2798" />
      <stop
         style="stop-color:#dfdfdf;stop-opacity:1"
         offset="1"
         id="stop2800" />
    </linearGradient>
    <radialGradient
       cx="30.323671"
       cy="13.380429"
       r="29.755747"
       fx="30.323671"
       fy="13.380429"
       id="radialGradient135354"
       xlink:href="#linearGradient2778"
       gradientUnits="userSpaceOnUse"
       gradientTransform="matrix(1.531919,0,0,1.531919,-16.12973,-7.117303)" />
    <radialGradient
       cx="31.760437"
       cy="22.226139"
       r="18.624397"
       fx="31.760437"
       fy="22.226139"
       id="radialGradient135356"
       xlink:href="#linearGradient2796"
       gradientUnits="userSpaceOnUse"
       gradientTransform="matrix(1.316528,0,0,1.316528,-10.05306,-9.280346)" />
    <linearGradient
       x1="-0.36309087"
       y1="29.207693"
       x2="59.148403"
       y2="29.207693"
       id="linearGradient135358"
       xlink:href="#linearGradient2788"
       gradientUnits="userSpaceOnUse" />
    <linearGradient
       x1="14.125"
       y1="1.5"
       x2="18"
       y2="34.5"
       id="linearGradient4906"
       xlink:href="#linearGradient4900"
       gradientUnits="userSpaceOnUse" />
    <radialGradient
       cx="19.825491"
       cy="18.369499"
       r="18.990868"
       fx="19.825491"
       fy="18.369499"
       id="radialGradient4936"
       xlink:href="#linearGradient2821"
       gradientUnits="userSpaceOnUse" />
    <linearGradient
       x1="27.471943"
       y1="23.875917"
       x2="20.203051"
       y2="35.373093"
       id="linearGradient4938"
       xlink:href="#linearGradient2810"
       gradientUnits="userSpaceOnUse"
       gradientTransform="matrix(0.950544,0,0,0.950544,1.216651,2.191398)" />
    <radialGradient
       cx="10.852722"
       cy="24.571123"
       r="10.971423"
       fx="10.852722"
       fy="24.571123"
       id="radialGradient4940"
       xlink:href="#linearGradient6011"
       gradientUnits="userSpaceOnUse"
       gradientTransform="matrix(1.306412,2.009915,-1.817805,1.181546,42.42075,-28.89249)" />
    <linearGradient
       x1="15.038443"
       y1="21.709896"
       x2="15.038443"
       y2="47.303162"
       id="linearGradient4942"
       xlink:href="#linearGradient4033"
       gradientUnits="userSpaceOnUse" />
    <radialGradient
       cx="169.35948"
       cy="252.11237"
       r="10.081617"
       fx="169.35948"
       fy="252.11237"
       id="radialGradient4944"
       xlink:href="#linearGradient5993"
       gradientUnits="userSpaceOnUse"
       gradientTransform="matrix(-1.852038,1.087271,-0.850551,-1.448754,685.9354,426.9624)" />
    <linearGradient
       x1="155.73915"
       y1="240.15204"
       x2="155.04268"
       y2="268.60489"
       id="linearGradient4946"
       xlink:href="#linearGradient4049"
       gradientUnits="userSpaceOnUse" />
    <radialGradient
       cx="33.549332"
       cy="6.2057247"
       r="9.5"
       fx="33.549332"
       fy="6.2057247"
       id="radialGradient4948"
       xlink:href="#linearGradient3999"
       gradientUnits="userSpaceOnUse"
       gradientTransform="matrix(1.617516,0.251029,-0.193469,1.246869,-19.2478,-9.159605)" />
    <radialGradient
       cx="30.323671"
       cy="13.380429"
       r="29.755747"
       fx="30.323671"
       fy="13.380429"
       id="radialGradient4950"
       xlink:href="#linearGradient2778"
       gradientUnits="userSpaceOnUse"
       gradientTransform="matrix(1.531919,0,0,1.531919,-16.12973,-7.117303)" />
    <radialGradient
       cx="31.760437"
       cy="22.226139"
       r="18.624397"
       fx="31.760437"
       fy="22.226139"
       id="radialGradient4952"
       xlink:href="#linearGradient2796"
       gradientUnits="userSpaceOnUse"
       gradientTransform="matrix(1.316528,0,0,1.316528,-10.05306,-9.280346)" />
    <linearGradient
       x1="-0.36309087"
       y1="29.207693"
       x2="59.148403"
       y2="29.207693"
       id="linearGradient4954"
       xlink:href="#linearGradient2788"
       gradientUnits="userSpaceOnUse" />
    <linearGradient
       x1="14.125"
       y1="1.5"
       x2="18"
       y2="34.5"
       id="linearGradient4956"
       xlink:href="#linearGradient4900"
       gradientUnits="userSpaceOnUse" />
  </defs>
  <g
     id="layer1">
    <g
       transform="matrix(1.3428571,0,0,1.3428571,-0.1714278,-0.1714278)"
       id="g4908">
      <rect
         width="34"
         height="34"
         ry="5.0655737"
         x="1"
         y="1"
         style="opacity:1;fill:#eeeeec;fill-opacity:1;stroke:#2e3436;stroke-width:1;stroke-linecap:round;stroke-linejoin:round;stroke-miterlimit:4;stroke-dasharray:none;stroke-opacity:1"
         id="rect2164" />
      <g
         transform="translate(-0.1689751,0.2752924)"
         id="g135197">
        <g
           transform="matrix(0.3104702,0,0,0.3104702,18.548872,2.54883)"
           id="g53353">
          <path
             d="M 45.857143 23.642857 A 20.5 20.5 0 1 1  4.8571434,23.642857 A 20.5 20.5 0 1 1  45.857143 23.642857 z"
             transform="matrix(1.046347,0,0,1.046339,-2.532876,-0.738814)"
             style="opacity:1;fill:#3465a4;fill-opacity:1;stroke:#204a87;stroke-width:0.95570958;stroke-linecap:round;stroke-linejoin:round;stroke-miterlimit:4;stroke-dasharray:none;stroke-dashoffset:0;stroke-opacity:1"
             id="path2064" />
          <path
             d="M 44.24468 26.382736 A 18.990868 18.990868 0 1 1  6.2629452,26.382736 A 18.990868 18.990868 0 1 1  44.24468 26.382736 z"
             transform="matrix(0.97335,0,0,0.972718,-0.565923,-1.664205)"
             style="opacity:1;fill:url(#radialGradient4936);fill-opacity:1;stroke:#ffffff;stroke-width:1.02771354;stroke-linecap:round;stroke-linejoin:round;stroke-miterlimit:4;stroke-dasharray:none;stroke-dashoffset:0;stroke-opacity:1"
             id="path2819" />
          <path
             d="M 7.2119866,36.999785 L 10.488993,33.821017 L 6.4381813,29.596643 C 7.8927603,29.641859 11.738079,24.729553 11.737956,24.700436 L 13.538058,24.700436 L 19.298383,19.549425 L 23.618627,19.549425 L 31.948385,12.789239 C 33.254467,11.66729 35.797045,14.187655 35.139278,14.924031 L 31.899095,22.492861 L 34.984984,22.860788 L 37.453695,21.914686 L 37.505126,24.635553 C 34.141788,24.70976 30.235075,30.05196 29.378953,31.691093 C 28.538418,33.300381 27.297293,40.620873 27.493692,45.088585 C 27.493692,45.088585 20.771321,45.734161 15.409589,43.71055 C 10.047857,41.686939 7.2119866,36.999785 7.2119866,36.999785 z "
             style="fill:#3465a4;fill-opacity:0.75;fill-rule:evenodd;stroke:#204a87;stroke-width:0.99999964px;stroke-linecap:butt;stroke-linejoin:miter;stroke-opacity:1"
             id="path2796" />
          <path
             d="M 17.618397,27.66447 C 17.618397,27.66447 18.345923,24.390606 19.800974,22.935554 C 21.256025,21.480504 23.438602,21.844266 23.438602,21.844266 C 23.468022,23.108266 21.95413,24.739719 21.98355,24.754368 C 21.336904,24.695525 17.603626,27.649821 17.618397,27.66447 z "
             style="fill:#eeeeec;fill-opacity:0.75;fill-rule:evenodd;stroke:#204a87;stroke-width:1.00000012px;stroke-linecap:butt;stroke-linejoin:miter;stroke-opacity:1"
             id="path2798" />
          <path
             d="M 30.866923,15.241552 L 24.242411,24.556761 L 10.722085,36.900805 L 24.43769,38.615256 L 27.595132,30.843134 L 35.753064,24.042509 L 35.753064,23.179886 L 32.486048,25.242541 L 29.581042,25.242541 L 32.995691,16.94175 L 30.866923,15.241552 z "
             style="opacity:0.4;fill:url(#linearGradient4938);fill-opacity:1;fill-rule:evenodd;stroke:none;stroke-width:1px;stroke-linecap:butt;stroke-linejoin:miter;stroke-opacity:1"
             id="path2806" />
          <path
             d="M 27.831868,18.350637 L 23.892365,21.479755 L 20.634896,21.931491 L 17.88191,25.45159 L 15.315395,25.234697 L 20.478609,20.667136 L 24.076926,20.667136 L 27.831868,18.350637 z "
             style="opacity:0.4;fill:#ffffff;fill-opacity:1;fill-rule:evenodd;stroke:none;stroke-width:1px;stroke-linecap:butt;stroke-linejoin:miter;stroke-opacity:1"
             id="path2808" />
          <path
             d="M 45.857143 23.642857 A 20.5 20.5 0 1 1  4.8571434,23.642857 A 20.5 20.5 0 1 1  45.857143 23.642857 z"
             transform="matrix(0.996882,0,0,0.999137,-1.214745,0.361526)"
             style="opacity:0.3;fill:none;fill-opacity:1;stroke:#ffffff;stroke-width:1.00199473;stroke-linecap:round;stroke-linejoin:round;stroke-miterlimit:4;stroke-dasharray:none;stroke-dashoffset:0;stroke-opacity:1"
             id="path2829" />
          <path
             d="M 25.977903,42.169556 L 27.424493,33.559332 L 23.985072,42.154739 L 25.977903,42.169556 z "
             style="opacity:0.22043008;fill:#ffffff;fill-opacity:1;fill-rule:evenodd;stroke:none;stroke-width:1px;stroke-linecap:butt;stroke-linejoin:miter;stroke-opacity:1"
             id="path2833" />
        </g>
        <g
           transform="matrix(0.3296024,0,0,0.3296024,0.763425,2.644607)"
           id="g55719">
          <path
             d="M 13.16194,20.517892 L 24.651223,20.517892 C 24.651223,20.517892 26.444482,25.041601 29.450818,28.509253 C 26.232162,27.963836 25.441162,27.01988 25.441162,27.01988 C 24.390167,30.61287 26.496162,38.339344 28.277137,41.674514 C 26.634372,40.103585 23.901933,38.41963 19.906911,38.528191 C 15.542039,38.645685 14.825607,43.13707 14.825607,43.13707 C 14.825607,43.13707 7.302867,26.628489 13.16194,20.517892 z "
             style="fill:url(#radialGradient4940);fill-opacity:1;fill-rule:evenodd;stroke:#c25f00;stroke-width:1;stroke-linecap:butt;stroke-linejoin:miter;stroke-miterlimit:6;stroke-dasharray:none;stroke-opacity:1"
             id="path3777" />
          <path
             d="M 13.637661,21.529633 C 13.691491,21.310539 14.152031,21.307975 14.562556,21.528602 C 17.04172,22.838628 20.239635,22.554905 22.468799,21.521181 L 24.000376,21.519744 C 24.000376,21.519744 25.222941,24.295755 26.902886,26.764781 C 26.180088,26.582615 25.031505,25.003327 25.031505,25.003327 C 23.007333,28.90252 24.966529,36.212773 25.975566,38.843239 C 24.765086,38.274575 22.626358,37.443189 19.712255,37.520509 C 16.166433,37.614591 14.866197,40.440914 14.866197,40.440914 C 14.866197,40.440914 9.2353136,26.73555 13.637661,21.529633 z "
             style="fill:none;fill-opacity:1;fill-rule:evenodd;stroke:url(#linearGradient4942);stroke-width:1;stroke-linecap:butt;stroke-linejoin:miter;stroke-miterlimit:4;stroke-dasharray:none;stroke-opacity:1"
             id="path5923" />
          <path
             d="M 170.08443 250.3642 A 9.5333147 9.5333147 0 1 1  151.0178,250.3642 A 9.5333147 9.5333147 0 1 1  170.08443 250.3642 z"
             transform="matrix(0.838545,0,0,0.838545,-116.0572,-196.4752)"
             style="opacity:1;color:#000000;fill:url(#radialGradient4944);fill-opacity:1;fill-rule:evenodd;stroke:#c25f00;stroke-width:1.19254184;stroke-linecap:butt;stroke-linejoin:miter;marker:none;marker-start:none;marker-mid:none;marker-end:none;stroke-miterlimit:4;stroke-dasharray:none;stroke-dashoffset:0;stroke-opacity:1;visibility:visible;display:inline;overflow:visible"
             id="path3775" />
          <path
             d="M 170.08443 250.3642 A 9.5333147 9.5333147 0 1 1  151.0178,250.3642 A 9.5333147 9.5333147 0 1 1  170.08443 250.3642 z"
             transform="matrix(0.736542,0,0,0.736542,-99.68041,-170.9369)"
             style="opacity:1;color:#000000;fill:none;fill-opacity:1;fill-rule:evenodd;stroke:url(#linearGradient4946);stroke-width:1.3576957;stroke-linecap:butt;stroke-linejoin:miter;marker:none;marker-start:none;marker-mid:none;marker-end:none;stroke-miterlimit:4;stroke-dasharray:none;stroke-dashoffset:0;stroke-opacity:1;visibility:visible;display:inline;overflow:visible"
             id="path4998" />
          <path
             d="M 35.78125,1.5 C 31.141328,1.735824 27.468751,4.3437974 27.46875,7.5 C 27.46875,9.5437706 29.00244,11.354197 31.34375,12.4375 L 29.974432,15.971591 L 34.75,13.375 L 34.78125,13.375 C 35.332144,13.445494 35.887199,13.5 36.46875,13.5 C 41.431314,13.5 45.468752,10.811426 45.46875,7.5 C 45.46875,4.1885743 41.431314,1.5 36.46875,1.5 C 36.23613,1.5 36.009443,1.4884021 35.78125,1.5 z "
             style="opacity:1;color:#000000;fill:url(#radialGradient4948);fill-opacity:1;fill-rule:evenodd;stroke:#959692;stroke-width:1;stroke-linecap:butt;stroke-linejoin:miter;marker:none;marker-start:none;marker-mid:none;marker-end:none;stroke-miterlimit:4;stroke-dasharray:none;stroke-dashoffset:0;stroke-opacity:1;visibility:visible;display:inline;overflow:visible"
             id="path6145" />
          <path
             d="M 35.858273,2.5229293 C 31.73831,2.7256902 28.477289,4.8771105 28.477288,7.5908062 C 28.477288,9.3480353 30.189106,11.026856 32.440265,11.913833 L 31.784081,13.891115 L 34.642562,12.425453 C 35.131722,12.486063 35.983775,12.592459 36.500156,12.592459 C 40.404571,12.592459 44.460174,10.437962 44.460172,7.5908062 C 44.460172,4.7436501 40.73376,2.5229293 36.46873,2.5229293 C 36.262179,2.5229293 36.060894,2.5129575 35.858273,2.5229293 z "
             style="opacity:1;color:#000000;fill:none;fill-opacity:1;fill-rule:evenodd;stroke:#ffffff;stroke-width:0.99999994;stroke-linecap:butt;stroke-linejoin:miter;marker:none;marker-start:none;marker-mid:none;marker-end:none;stroke-miterlimit:4;stroke-dasharray:none;stroke-dashoffset:0;stroke-opacity:1;visibility:visible;display:inline;overflow:visible"
             id="path6179" />
          <path
             d="M 24.792968,24.23828 L 24.53125,24.511719 C 24.53125,24.511719 25.332792,25.387014 26.226562,26.125 L 26.234375,26.125 C 25.382811,25.421864 24.792968,24.23828 24.792968,24.23828 z "
             style="fill:#f8ae25;fill-opacity:1;fill-rule:evenodd;stroke:none;stroke-width:0.2;stroke-linecap:butt;stroke-linejoin:miter;stroke-miterlimit:4;stroke-opacity:1"
             id="path4074" />
        </g>
        <g
           transform="matrix(0.3242452,0,0,0.3242452,1.9087997,18.533998)"
           id="g135189">
          <path
             d="M 58.403591 29.207693 A 29.010935 29.010935 0 1 1  0.3817215,29.207693 A 29.010935 29.010935 0 1 1  58.403591 29.207693 z"
             transform="matrix(0.67131,0,0,0.67131,5.222369,3.418373)"
             style="fill:url(#radialGradient4950);fill-opacity:1;fill-rule:evenodd;stroke:#a40000;stroke-width:1.48962474;stroke-linecap:butt;stroke-linejoin:miter;stroke-miterlimit:4;stroke-dasharray:none;stroke-opacity:1"
             id="path907" />
          <path
             d="M 50.384842 29.319231 A 18.624397 18.624397 0 1 1  13.136047,29.319231 A 18.624397 18.624397 0 1 1  50.384842 29.319231 z"
             transform="matrix(0.780964,0,0,0.780964,0.172888,-0.147684)"
             style="fill:url(#radialGradient4952);fill-opacity:1;fill-rule:evenodd;stroke:none;stroke-width:1pt;stroke-linecap:butt;stroke-linejoin:miter;stroke-opacity:1"
             id="path2159" />
          <path
             d="M 23.270741,31.644037 C 23.270738,31.139201 23.454793,30.697468 23.822909,30.318838 C 24.201533,29.929696 24.643266,29.735123 25.148108,29.73512 C 25.663458,29.735123 26.110449,29.924437 26.489083,30.303061 C 26.867705,30.681694 27.057018,31.128685 27.057027,31.644037 C 27.057018,32.148877 26.862445,32.59061 26.473307,32.969238 C 26.094673,33.337348 25.65294,33.521403 25.148108,33.521403 C 24.664301,33.521403 24.227826,33.33209 23.838685,32.953462 C 23.460053,32.564314 23.270738,32.127843 23.270741,31.644037"
             style="font-size:19.83371353px;font-style:normal;font-variant:normal;font-weight:normal;font-stretch:normal;line-height:100%;writing-mode:lr-tb;text-anchor:start;fill:#a63434;fill-opacity:1;stroke:none;stroke-width:1px;stroke-linecap:butt;stroke-linejoin:miter;stroke-opacity:1;font-family:Dutch801 SWM"
             id="text1299" />
          <path
             d="M 22.990601,14.858179 C 22.936763,14.605777 22.896388,14.348101 22.869477,14.085146 C 22.856012,13.822228 22.849284,13.559292 22.849288,13.296337 C 22.849284,12.602205 23.044429,12.076333 23.434724,11.718718 C 23.838466,11.35063 24.41717,11.166573 25.170838,11.166553 C 25.95141,11.166573 26.543572,11.34537 26.947327,11.702942 C 27.364524,12.060557 27.573127,12.591688 27.573137,13.296337 C 27.573127,13.559292 27.559669,13.822228 27.532762,14.085146 C 27.519295,14.348101 27.492379,14.600519 27.452012,14.842402 L 25.493834,27.289811 L 24.666154,27.289811 L 22.990601,14.858179"
             style="font-size:19.83371353px;font-style:normal;font-variant:normal;font-weight:normal;font-stretch:normal;line-height:100%;writing-mode:lr-tb;text-anchor:start;fill:#a63434;fill-opacity:1;stroke:none;stroke-width:1px;stroke-linecap:butt;stroke-linejoin:miter;stroke-opacity:1;font-family:Dutch801 SWM"
             id="path1591" />
          <path
             d="M 58.403591 29.207693 A 29.010935 29.010935 0 1 1  0.3817215,29.207693 A 29.010935 29.010935 0 1 1  58.403591 29.207693 z"
             transform="matrix(0.629301,0,0,0.629301,6.457116,4.64535)"
             style="opacity:0.37628868;fill:none;fill-opacity:1;fill-rule:evenodd;stroke:url(#linearGradient4954);stroke-width:1.58906472;stroke-linecap:butt;stroke-linejoin:miter;stroke-miterlimit:4;stroke-dasharray:none;stroke-opacity:1"
             id="path2786" />
        </g>
      </g>
      <rect
         width="32.057144"
         height="32.057144"
         ry="4.0261126"
         x="1.9714286"
         y="1.9714286"
         style="opacity:1;fill:none;fill-opacity:1;stroke:url(#linearGradient4956);stroke-width:0.94285715;stroke-linecap:round;stroke-linejoin:round;stroke-miterlimit:4;stroke-dasharray:none;stroke-opacity:1"
         id="rect4898" />
    </g>
  </g>
</svg>
